<mxfile host="Electron" modified="2023-08-21T10:41:04.408Z" agent="5.0 (Windows NT 10.0; Win64; x64) AppleWebKit/537.36 (KHTML, like Gecko) draw.io/20.3.0 Chrome/104.0.5112.114 Electron/20.1.3 Safari/537.36" etag="YlM3BTT1_ilMgjWjQkcm" compressed="false" version="20.3.0" type="device">
  <diagram name="IM005A" id="wz0wffTLpOwTNglZcx0D">
    <mxGraphModel dx="1422" dy="977" grid="1" gridSize="2" guides="1" tooltips="1" connect="1" arrows="1" fold="1" page="1" pageScale="1" pageWidth="1169" pageHeight="827" math="0" shadow="0">
      <root>
        <mxCell id="yHUiXCIcpEU2pmLKan_n-0" />
        <mxCell id="yHUiXCIcpEU2pmLKan_n-124" value="Connection" style="" parent="yHUiXCIcpEU2pmLKan_n-0" />
        <object label="Connection" PipingConnector="N" LabelConnector="N" SignalConnector="Y" Direction="90" AuxiliaryConnector="N" id="rcUO89sZQDFuOGigJMmF-0">
          <mxCell style="vsdxID=1407;fillColor=none;gradientColor=none;shape=stencil(rVFbDsIgEDwNnyQU4glqvcfGblsilmZBS28vZGMsxg9j/JvZmX1kR5g2TLCg0CpE8hdcbR8nYY5CaztPSDZmJEwnTDt4wpH8be6ZL1CcBV39vUxI3KdKh1YbswPTEzuBzlmiVGmKau9zUKM+jlJJQrJBko8QrZ+rrQ5oRJnXyMHBWElhRVx25ebnw/5zVvPFWRm83jxY5zilvf4eSy5xpKZ7AA==);strokeColor=#00FF00;strokeWidth=1;points=[[0.5,0.5,0,0,0]];labelBackgroundColor=none;rounded=0;html=1;whiteSpace=wrap;aspect=fixed;noLabel=1;snapToPoint=1;container=0;fontSize=16;" parent="yHUiXCIcpEU2pmLKan_n-124" vertex="1">
            <mxGeometry x="394" y="138" width="12" height="12" as="geometry" />
          </mxCell>
        </object>
        <object label="Connection" PipingConnector="Y" LabelConnector="N" SignalConnector="Y" Direction="270" AuxiliaryConnector="Y" id="rcUO89sZQDFuOGigJMmF-1">
          <mxCell style="vsdxID=1407;fillColor=none;gradientColor=none;shape=stencil(rVFbDsIgEDwNnyQU4glqvcfGblsilmZBS28vZGMsxg9j/JvZmX1kR5g2TLCg0CpE8hdcbR8nYY5CaztPSDZmJEwnTDt4wpH8be6ZL1CcBV39vUxI3KdKh1YbswPTEzuBzlmiVGmKau9zUKM+jlJJQrJBko8QrZ+rrQ5oRJnXyMHBWElhRVx25ebnw/5zVvPFWRm83jxY5zilvf4eSy5xpKZ7AA==);strokeColor=#00FF00;strokeWidth=1;points=[[0.5,0.5,0,0,0]];labelBackgroundColor=none;rounded=0;html=1;whiteSpace=wrap;aspect=fixed;noLabel=1;snapToPoint=1;container=0;fontSize=16;" parent="yHUiXCIcpEU2pmLKan_n-124" vertex="1">
            <mxGeometry x="394" y="330" width="12" height="12" as="geometry" />
          </mxCell>
        </object>
        <object label="Connection" PipingConnector="N" LabelConnector="N" SignalConnector="Y" Direction="180" AuxiliaryConnector="N" id="rcUO89sZQDFuOGigJMmF-2">
          <mxCell style="vsdxID=1407;fillColor=none;gradientColor=none;shape=stencil(rVFbDsIgEDwNnyQU4glqvcfGblsilmZBS28vZGMsxg9j/JvZmX1kR5g2TLCg0CpE8hdcbR8nYY5CaztPSDZmJEwnTDt4wpH8be6ZL1CcBV39vUxI3KdKh1YbswPTEzuBzlmiVGmKau9zUKM+jlJJQrJBko8QrZ+rrQ5oRJnXyMHBWElhRVx25ebnw/5zVvPFWRm83jxY5zilvf4eSy5xpKZ7AA==);strokeColor=#00FF00;strokeWidth=1;points=[[0.5,0.5,0,0,0]];labelBackgroundColor=none;rounded=0;html=1;whiteSpace=wrap;aspect=fixed;noLabel=1;snapToPoint=1;container=0;fontSize=16;" parent="yHUiXCIcpEU2pmLKan_n-124" vertex="1">
            <mxGeometry x="298" y="234" width="12" height="12" as="geometry" />
          </mxCell>
        </object>
        <object label="Connection" PipingConnector="N" LabelConnector="N" SignalConnector="Y" Direction="0" AuxiliaryConnector="N" id="rcUO89sZQDFuOGigJMmF-3">
          <mxCell style="vsdxID=1407;fillColor=none;gradientColor=none;shape=stencil(rVFbDsIgEDwNnyQU4glqvcfGblsilmZBS28vZGMsxg9j/JvZmX1kR5g2TLCg0CpE8hdcbR8nYY5CaztPSDZmJEwnTDt4wpH8be6ZL1CcBV39vUxI3KdKh1YbswPTEzuBzlmiVGmKau9zUKM+jlJJQrJBko8QrZ+rrQ5oRJnXyMHBWElhRVx25ebnw/5zVvPFWRm83jxY5zilvf4eSy5xpKZ7AA==);strokeColor=#00FF00;strokeWidth=1;points=[[0.5,0.5,0,0,0]];labelBackgroundColor=none;rounded=0;html=1;whiteSpace=wrap;aspect=fixed;noLabel=1;snapToPoint=1;container=0;fontSize=16;" parent="yHUiXCIcpEU2pmLKan_n-124" vertex="1">
            <mxGeometry x="490" y="234" width="12" height="12" as="geometry" />
          </mxCell>
        </object>
        <mxCell id="yHUiXCIcpEU2pmLKan_n-129" value="Label" style="locked=1;" parent="yHUiXCIcpEU2pmLKan_n-0" />
        <object label="%LabelLines%&amp;nbsp; &amp;nbsp; &amp;nbsp; &amp;nbsp; &amp;nbsp; &amp;nbsp;%LabelIndex%" placeholders="1" LabelLines="1" LabelIndex="C" id="OxFjoSKdfpgckHMKP-ke-3">
          <mxCell style="rounded=0;whiteSpace=wrap;html=1;fillColor=none;strokeColor=#FF0000;fontColor=#FF0000;fontSize=10;align=left;noLabel=0;" parent="yHUiXCIcpEU2pmLKan_n-129" vertex="1">
            <mxGeometry x="360" y="288" width="80" height="16" as="geometry" />
          </mxCell>
        </object>
        <object label="%LabelLines%&amp;nbsp; &amp;nbsp; &amp;nbsp; &amp;nbsp; &amp;nbsp; &amp;nbsp;%LabelIndex%" placeholders="1" LabelLines="1" LabelIndex="B" id="OxFjoSKdfpgckHMKP-ke-1">
          <mxCell style="rounded=0;whiteSpace=wrap;html=1;fillColor=none;strokeColor=#FF0000;fontColor=#FF0000;fontSize=10;align=left;noLabel=0;" parent="yHUiXCIcpEU2pmLKan_n-129" vertex="1">
            <mxGeometry x="360" y="176" width="80" height="16" as="geometry" />
          </mxCell>
        </object>
        <object label="%LabelLines%&amp;nbsp; &amp;nbsp; &amp;nbsp; &amp;nbsp; &amp;nbsp; &amp;nbsp;%LabelIndex%" placeholders="1" LabelLines="1" LabelIndex="A" id="OxFjoSKdfpgckHMKP-ke-0">
          <mxCell style="rounded=0;whiteSpace=wrap;html=1;fillColor=none;strokeColor=#FF0000;fontColor=#FF0000;fontSize=10;align=left;noLabel=0;" parent="yHUiXCIcpEU2pmLKan_n-129" vertex="1">
            <mxGeometry x="224" y="144" width="80" height="16" as="geometry" />
          </mxCell>
        </object>
        <mxCell id="yHUiXCIcpEU2pmLKan_n-130" value="Origo" style="locked=1;" parent="yHUiXCIcpEU2pmLKan_n-0" />
        <object label="origo" id="OxFjoSKdfpgckHMKP-ke-2">
          <mxCell style="vsdxID=1407;fillColor=none;gradientColor=none;shape=stencil(rVFbDsIgEDwNnyQU4glqvcfGblsilmZBS28vZGMsxg9j/JvZmX1kR5g2TLCg0CpE8hdcbR8nYY5CaztPSDZmJEwnTDt4wpH8be6ZL1CcBV39vUxI3KdKh1YbswPTEzuBzlmiVGmKau9zUKM+jlJJQrJBko8QrZ+rrQ5oRJnXyMHBWElhRVx25ebnw/5zVvPFWRm83jxY5zilvf4eSy5xpKZ7AA==);strokeColor=#ff0000;strokeWidth=1;points=[[0.5,0.5,0,0,0]];labelBackgroundColor=none;rounded=0;html=1;whiteSpace=wrap;aspect=fixed;noLabel=1;snapToPoint=1;" parent="yHUiXCIcpEU2pmLKan_n-130" vertex="1">
            <mxGeometry x="396" y="236" width="7.874" height="7.87" as="geometry" />
          </mxCell>
        </object>
        <object label="Symbol" Width="12" Height="12" UoM="mm" id="yHUiXCIcpEU2pmLKan_n-131">
          <mxCell style="" parent="yHUiXCIcpEU2pmLKan_n-0" />
        </object>
        <mxCell id="JtBApES2Cq1SKlf0BFyZ-1" value="" style="ellipse;whiteSpace=wrap;html=1;aspect=fixed;strokeWidth=1;fillColor=none;" parent="yHUiXCIcpEU2pmLKan_n-131" vertex="1">
          <mxGeometry x="304" y="144" width="192" height="192" as="geometry" />
        </mxCell>
      </root>
    </mxGraphModel>
  </diagram>
</mxfile>
